<?xml version="1.0" encoding="utf-8"?>
<!-- Generator: Adobe Illustrator 24.0.2, SVG Export Plug-In . SVG Version: 6.00 Build 0)  -->
<svg version="1.1" xmlns="http://www.w3.org/2000/svg" xmlns:xlink="http://www.w3.org/1999/xlink" x="0px" y="0px"
	 viewBox="0 0 24 24" style="enable-background:new 0 0 24 24;" xml:space="preserve">
<style type="text/css">
	.st0{fill:none;}
	.st1{fill:#e83a30;}
</style>
<g id="bounding_box">
	<rect x="0" y="0" class="st0" width="24" height="24"/>
</g>
<g id="design">
	<g>
		<path class="st1" d="M19.58,13.1l-7.04,7.18C12.39,20.42,12.2,20.5,12,20.5s-0.39-0.08-0.54-0.22l-7.06-7.2
			c-1.88-1.9-1.87-5.24,0.02-7.13c1.89-1.89,4.98-1.9,6.88-0.03c0.28,0.28,0.51,0.57,0.7,0.87c0.2-0.3,0.42-0.59,0.68-0.84
			c0.91-0.92,2.14-1.43,3.44-1.43c1.31,0,2.53,0.51,3.45,1.43C21.48,7.85,21.48,11.2,19.58,13.1z"/>
	</g>
</g>
</svg>
